<?xml version="1.0" encoding="utf-8"?>
<!-- Generator: Adobe Illustrator 25.2.3, SVG Export Plug-In . SVG Version: 6.00 Build 0)  -->
<svg version="1.1" id="Capa_1" xmlns="http://www.w3.org/2000/svg" xmlns:xlink="http://www.w3.org/1999/xlink" x="0px" y="0px"
	 viewBox="0 0 500 500" style="enable-background:new 0 0 500 500;" xml:space="preserve">
<style type="text/css">
	.st0{fill:#ED502E;}
	.st1{fill:#ED772E;}
	.st2{fill:#A5FF4A;}
	.st3{fill:#D8FF4A;}
	.st4{fill:#5EFF55;}
	.st5{fill:#8A4200;}
	.st6{fill:#FFFFFF;}
</style>
<rect x="90" y="359.72" class="st0" width="43.53" height="65.21"/>
<rect x="153.12" y="306.28" class="st1" width="43.53" height="118.66"/>
<rect x="216.24" y="158.76" class="st2" width="43.53" height="267.24"/>
<rect x="279.35" y="182.28" class="st3" width="43.53" height="242.66"/>
<rect x="342.47" y="54" class="st4" width="43.53" height="372"/>
<rect x="296" y="265" class="st5" width="125" height="190"/>
<path class="st5" d="M362,278h-2c-6.6,0-12-5.4-12-12v-2c0-6.6,5.4-12,12-12h2c6.6,0,12,5.4,12,12v2C374,272.6,368.6,278,362,278z"
	/>
<rect x="309" y="273" class="st6" width="100" height="175"/>
</svg>
