<?xml version="1.0" encoding="utf-8"?>
<!-- Generator: Adobe Illustrator 25.2.3, SVG Export Plug-In . SVG Version: 6.00 Build 0)  -->
<svg version="1.1" id="Capa_1" xmlns="http://www.w3.org/2000/svg" xmlns:xlink="http://www.w3.org/1999/xlink" x="0px" y="0px"
	 viewBox="0 0 32 32" style="enable-background:new 0 0 32 32;" xml:space="preserve">
<style type="text/css">
	.st0{fill:#363740;}
	.st1{fill:#5B5C66;}
	.st2{fill:none;stroke:#363740;stroke-miterlimit:10;}
</style>
<path class="st0" d="M13.92,14.58"/>
<circle class="st0" cx="10.69" cy="12.74" r="2.34"/>
<path class="st1" d="M18.92,12.58"/>
<path class="st1" d="M10.71,19.23c-0.27-3.1,2.11-5.77,4.98-5.77c2.87,0,5.25,2.67,4.98,5.77"/>
<circle class="st1" cx="15.69" cy="10.74" r="2.34"/>
<path class="st0" d="M5.71,21.23c-0.27-3.1,2.11-5.77,4.98-5.77c2.87,0,5.25,2.67,4.98,5.77"/>
<path class="st0" d="M23.92,14.58"/>
<path class="st0" d="M15.71,21.23c-0.27-3.1,2.11-5.77,4.98-5.77c2.87,0,5.25,2.67,4.98,5.77"/>
<circle class="st0" cx="20.69" cy="12.74" r="2.34"/>
<circle class="st2" cx="16" cy="16" r="13"/>
</svg>
